<?xml version="1.0" encoding="UTF-8" standalone="no"?>
<svg
   xmlns:dc="http://purl.org/dc/elements/1.1/"
   xmlns:cc="http://creativecommons.org/ns#"
   xmlns:rdf="http://www.w3.org/1999/02/22-rdf-syntax-ns#"
   xmlns:svg="http://www.w3.org/2000/svg"
   xmlns="http://www.w3.org/2000/svg"
   xmlns:sodipodi="http://sodipodi.sourceforge.net/DTD/sodipodi-0.dtd"
   xmlns:inkscape="http://www.inkscape.org/namespaces/inkscape"
   version="1.1"
   id="Capa_1"
   x="0px"
   y="0px"
   width="100vw"
   style="enable-background:new 0 0 208 208; max-width: 100vw;"
   preserveAspectRatio="xMidYMid meet"
   viewBox="0 0 208 208"
   sodipodi:docname="glob7.svg"
   inkscape:export-filename="/Users/nithisht/IdeaProjects/progtools/prog-tools/src/assets/icons/glob6.png"
   inkscape:export-xdpi="96"
   inkscape:export-ydpi="96"
   inkscape:version="1.0.1 (c497b03c, 2020-09-10)">
  <metadata
     id="metadata314">
    <rdf:RDF>
      <cc:Work
         rdf:about="">
        <dc:format>image/svg+xml</dc:format>
        <dc:type
           rdf:resource="http://purl.org/dc/dcmitype/StillImage" />
        <dc:title></dc:title>
      </cc:Work>
    </rdf:RDF>
  </metadata>
  <defs
     id="defs312" />
  <sodipodi:namedview
     pagecolor="#ffffff"
     bordercolor="#666666"
     borderopacity="1"
     objecttolerance="10"
     gridtolerance="10"
     guidetolerance="10"
     inkscape:pageopacity="0"
     inkscape:pageshadow="2"
     inkscape:window-width="1440"
     inkscape:window-height="874"
     id="namedview310"
     showgrid="false"
     inkscape:zoom="3.2451554"
     inkscape:cx="43.295307"
     inkscape:cy="102.6145"
     inkscape:window-x="0"
     inkscape:window-y="26"
     inkscape:window-maximized="0"
     inkscape:current-layer="layer1" />
  <g
     inkscape:groupmode="layer"
     id="layer1"
     inkscape:label="background"
     style="display:inline">
    <path
       style="fill:#9fcae2;fill-opacity:1"
       id="path1342"
       sodipodi:type="arc"
       sodipodi:cx="101.53597"
       sodipodi:cy="103.53896"
       sodipodi:rx="98.146301"
       sodipodi:ry="98.916679"
       sodipodi:start="0"
       sodipodi:end="6.2802182"
       sodipodi:arc-type="slice"
       d="M 199.68227,103.53896 A 98.146301,98.916679 0 0 1 101.60878,202.45562 98.146301,98.916679 0 0 1 3.3897793,103.68571 98.146301,98.916679 0 0 1 101.31756,4.6225289 98.146301,98.916679 0 0 1 199.68184,103.24547 l -98.14587,0.29349 z" />
  </g>
  <g
     class="globe"
     id="g297">
    <g
       id="g295">
      <g
         id="g257">
        <g
           id="g255">
          <path
             style="fill:#000;"
             d="M102.618,205.229c-56.585,0-102.616-46.031-102.616-102.616C0.002,46.031,46.033,0,102.618,0      C159.2,0,205.227,46.031,205.227,102.613C205.227,159.198,159.2,205.229,102.618,205.229z M102.618,8.618      c-51.829,0-94.002,42.166-94.002,93.995s42.17,93.995,94.002,93.995c51.825,0,93.988-42.162,93.988-93.995      C196.606,50.784,154.444,8.618,102.618,8.618z"
             id="path253" />
        </g>
      </g>
      <g
         id="g263">
        <g
           id="g261">
          <rect
             x="5.746"
             y="98.304"
             style="fill:#010002;"
             width="193.734"
             height="8.618"
             id="rect259" />
        </g>
      </g>
      <g
         id="g269">
        <g
           id="g267">
          <path
             style="fill:#010002;"
             d="M104.941,62.111c-48.644,0-84.94-10.704-87.199-11.388l2.494-8.253      c0.816,0.247,82.657,24.336,164.38-0.004l2.452,8.26C158.405,59.266,130.021,62.111,104.941,62.111z"
             id="path265" />
        </g>
      </g>
      <g
         id="g275">
        <g
           id="g273">
          <path
             style="fill:#010002;"
             d="M20.416,160.572l-2.459-8.26c84.271-25.081,165.898-1.027,169.333,0l-2.494,8.256      C183.976,160.318,102.142,136.24,20.416,160.572z"
             id="path271" />
        </g>
      </g>
      <g
         id="g281">
        <g
           id="g279">
          <path
             style="fill:#010002;"
             d="M69.399,196.168C26.933,96.747,63.584,8.604,63.959,7.727l7.927,3.378      c-0.365,0.845-35.534,85.756,5.44,181.677L69.399,196.168z"
             id="path277" />
        </g>
      </g>
      <g
         id="g287">
        <g
           id="g285">
          <path
             style="fill:#010002;"
             d="M135.168,196.168l-7.927-3.382c40.971-95.92,5.801-180.832,5.436-181.677l7.927-3.378      C140.973,8.604,177.627,96.747,135.168,196.168z"
             id="path283" />
        </g>
      </g>
      <g
         id="g293">
        <g
           id="g291">
          <rect
             x="98.306"
             y="5.744"
             style="fill:#010002;"
             width="8.614"
             height="197.302"
             id="rect289" />
        </g>
      </g>
    </g>
  </g>
  <g
     id="g307"
     transform="matrix(0.38004085,0,0,0.37762322,6.6689002,5.4557764)">
    <path
       style="fill:#844b4b"
       d="m 380.8,264.4 v -21.6 l -18.4,-4 c -0.4,-3.6 -1.2,-7.2 -2,-10.8 -10.4,0.8 -20.8,-0.8 -30.4,-4.4 3.6,9.6 6,19.6 6,30.4 0,45.2 -36.8,82 -82,82 -45.2,0 -82,-36.8 -82,-82 0,-45.2 36.8,-82 82,-82 10.8,0 21.2,2 30.4,6 -3.6,-10 -5.2,-20.4 -4.4,-30.4 -4,-0.8 -8,-1.6 -12,-2.4 l -4,-18.4 h -22 l -4,18.4 c -4.4,0.8 -9.2,1.6 -13.2,2.8 l -10.4,-15.6 -20,8.4 3.6,18.8 c -3.6,2 -7.2,4.4 -10.4,7.2 l -13.6,-10.4 -16.8,14 9.2,16.8 c -2.8,3.6 -5.6,7.6 -7.6,11.6 l -16,-4.4 -10,19.2 14.8,12 c -1.2,4.4 -2,8.8 -2.8,13.6 l -16.8,2 -2,21.6 18.4,5.6 c 0.4,4.8 1.6,9.2 2.8,13.6 l -14.8,8.4 6.4,20.8 19.2,-2 c 2.4,4 4.8,8 7.6,11.6 l -10,13.2 14,16.8 16.8,-9.2 c 3.6,2.8 7.6,5.6 11.6,7.6 l -4.4,16 19.2,10 12,-14.8 c 4.4,1.2 8.8,2 13.6,2.8 l 2,16.8 21.6,2 5.6,-18.4 c 4.8,-0.4 9.2,-1.6 13.6,-2.8 l 8.4,14.8 20.8,-6.4 -2,-19.2 c 4.4,-2.4 8.4,-5.2 12.4,-8.4 l 15.6,10.4 15.2,-15.2 -10.4,-16 c 2.8,-3.6 5.2,-7.6 7.6,-11.2 l 18.4,3.6 8.4,-20 L 360,282 c 1.2,-4.4 2,-8.8 2.4,-13.6 z"
       id="path299" />
    <g
       id="g305">
      <path
         style="fill:#324a5e"
         d="m 225.2,360.4 c 1.2,0.4 2,0.4 3.2,0.8 -1.2,17.6 -8.8,34.8 -22,48 -20.4,20.4 -49.6,26.8 -75.2,19.2 l 42,-42 -14.8,-37.2 -37.2,-14.8 -42,42.4 C 71.6,351.2 78,322 98.4,301.6 c 13.6,-13.6 30.4,-20.8 48,-22 0,0.8 0.4,1.6 0.8,2.8 l -14.8,8.4 6.4,20.8 19.2,-2 c 2.4,4 4.8,8 7.6,11.6 l -10,12.8 14,16.8 16.8,-9.2 c 3.6,2.8 7.6,5.6 11.6,7.6 l -4.4,16 19.2,10 z"
         id="path301" />
      <path
         style="fill:#324a5e"
         d="m 409.6,206.4 c -22.8,22.8 -56.4,28 -84.4,16 L 222,325.2 c 0.8,2 1.6,4 2.4,6 -21.6,-8.4 -39.2,-25.6 -47.6,-47.6 2,0.8 4,1.2 6,2.4 L 286,182.8 c -12,-28 -6.8,-61.6 16,-84.4 20.4,-20.4 49.6,-26.8 75.2,-19.2 l -42.4,42 14.8,37.2 37.2,14.8 42,-42 c 7.6,25.6 1.2,54.8 -19.2,75.2 z"
         id="path303" />
    </g>
  </g>
</svg>
