<?xml version="1.0" encoding="windows-1252"?>
<!-- Generator: Adobe Illustrator 18.1.1, SVG Export Plug-In . SVG Version: 6.00 Build 0)  -->
<svg version="1.1" id="Capa_1" xmlns="http://www.w3.org/2000/svg" xmlns:xlink="http://www.w3.org/1999/xlink" x="0px" y="0px" width="100vw" style="enable-background:new 0 0 208 208; max-width: 100vw;" preserveAspectRatio="xMidYMid meet" viewBox="0 0 208 208">
<g class="globe">
	<g>
		<g>
			<g>
				<path style="fill:#000;" d="M102.618,205.229c-56.585,0-102.616-46.031-102.616-102.616C0.002,46.031,46.033,0,102.618,0      C159.2,0,205.227,46.031,205.227,102.613C205.227,159.198,159.2,205.229,102.618,205.229z M102.618,8.618      c-51.829,0-94.002,42.166-94.002,93.995s42.17,93.995,94.002,93.995c51.825,0,93.988-42.162,93.988-93.995      C196.606,50.784,154.444,8.618,102.618,8.618z"/>
			</g>
		</g>
		<g>
			<g>
				<rect x="5.746" y="98.304" style="fill:#010002;" width="193.734" height="8.618"/>
			</g>
		</g>
		<g>
			<g>
				<path style="fill:#010002;" d="M104.941,62.111c-48.644,0-84.94-10.704-87.199-11.388l2.494-8.253      c0.816,0.247,82.657,24.336,164.38-0.004l2.452,8.26C158.405,59.266,130.021,62.111,104.941,62.111z"/>
			</g>
		</g>
		<g>
			<g>
				<path style="fill:#010002;" d="M20.416,160.572l-2.459-8.26c84.271-25.081,165.898-1.027,169.333,0l-2.494,8.256      C183.976,160.318,102.142,136.24,20.416,160.572z"/>
			</g>
		</g>
		<g>
			<g>
				<path style="fill:#010002;" d="M69.399,196.168C26.933,96.747,63.584,8.604,63.959,7.727l7.927,3.378      c-0.365,0.845-35.534,85.756,5.44,181.677L69.399,196.168z"/>
			</g>
		</g>
		<g>
			<g>
				<path style="fill:#010002;" d="M135.168,196.168l-7.927-3.382c40.971-95.92,5.801-180.832,5.436-181.677l7.927-3.378      C140.973,8.604,177.627,96.747,135.168,196.168z"/>
			</g>
		</g>
		<g>
			<g>
				<rect x="98.306" y="5.744" style="fill:#010002;" width="8.614" height="197.302"/>
			</g>
		</g>
	</g>
</g>
<g>
  <path style="fill:#844B4B;" d="M380.8,264.4v-21.6l-18.4-4c-0.4-3.6-1.2-7.2-2-10.8c-10.4,0.8-20.8-0.8-30.4-4.4  c3.6,9.6,6,19.6,6,30.4c0,45.2-36.8,82-82,82s-82-36.8-82-82s36.8-82,82-82c10.8,0,21.2,2,30.4,6c-3.6-10-5.2-20.4-4.4-30.4  c-4-0.8-8-1.6-12-2.4l-4-18.4h-22l-4,18.4c-4.4,0.8-9.2,1.6-13.2,2.8l-10.4-15.6l-20,8.4l3.6,18.8c-3.6,2-7.2,4.4-10.4,7.2  L174,156.4l-16.8,14l9.2,16.8c-2.8,3.6-5.6,7.6-7.6,11.6l-16-4.4l-10,19.2l14.8,12c-1.2,4.4-2,8.8-2.8,13.6l-16.8,2l-2,21.6  l18.4,5.6c0.4,4.8,1.6,9.2,2.8,13.6l-14.8,8.4l6.4,20.8l19.2-2c2.4,4,4.8,8,7.6,11.6l-10,13.2l14,16.8l16.8-9.2  c3.6,2.8,7.6,5.6,11.6,7.6l-4.4,16l19.2,10l12-14.8c4.4,1.2,8.8,2,13.6,2.8l2,16.8l21.6,2l5.6-18.4c4.8-0.4,9.2-1.6,13.6-2.8  l8.4,14.8l20.8-6.4l-2-19.2c4.4-2.4,8.4-5.2,12.4-8.4l15.6,10.4l15.2-15.2l-10.4-16c2.8-3.6,5.2-7.6,7.6-11.2l18.4,3.6l8.4-20  L360,282c1.2-4.4,2-8.8,2.4-13.6L380.8,264.4z"/>
  <g>
    <path style="fill:#324A5E;" d="M225.2,360.4c1.2,0.4,2,0.4,3.2,0.8c-1.2,17.6-8.8,34.8-22,48c-20.4,20.4-49.6,26.8-75.2,19.2l42-42   l-14.8-37.2l-37.2-14.8l-42,42.4c-7.6-25.6-1.2-54.8,19.2-75.2c13.6-13.6,30.4-20.8,48-22c0,0.8,0.4,1.6,0.8,2.8l-14.8,8.4   l6.4,20.8l19.2-2c2.4,4,4.8,8,7.6,11.6l-10,12.8l14,16.8l16.8-9.2c3.6,2.8,7.6,5.6,11.6,7.6l-4.4,16l19.2,10L225.2,360.4z"/>
    <path style="fill:#324A5E;/*! width: auto; *//*! height: auto; */" d="M409.6,206.4c-22.8,22.8-56.4,28-84.4,16L222,325.2c0.8,2,1.6,4,2.4,6   c-21.6-8.4-39.2-25.6-47.6-47.6c2,0.8,4,1.2,6,2.4L286,182.8c-12-28-6.8-61.6,16-84.4c20.4-20.4,49.6-26.8,75.2-19.2l-42.4,42   l14.8,37.2l37.2,14.8l42-42C436.4,156.8,430,186,409.6,206.4z"/>
  </g>
</g>
</svg>