<?xml version="1.0" encoding="UTF-8" standalone="no"?>
<svg
   xmlns:dc="http://purl.org/dc/elements/1.1/"
   xmlns:cc="http://creativecommons.org/ns#"
   xmlns:rdf="http://www.w3.org/1999/02/22-rdf-syntax-ns#"
   xmlns:svg="http://www.w3.org/2000/svg"
   xmlns="http://www.w3.org/2000/svg"
   xmlns:sodipodi="http://sodipodi.sourceforge.net/DTD/sodipodi-0.dtd"
   xmlns:inkscape="http://www.inkscape.org/namespaces/inkscape"
   version="1.1"
   id="Capa_1"
   x="0px"
   y="0px"
   width="100vw"
   style="enable-background:new 0 0 208 208; max-width: 100vw;"
   preserveAspectRatio="xMidYMid meet"
   viewBox="0 0 208 208"
   sodipodi:docname="glob7.svg"
   inkscape:export-filename="/Users/nithisht/IdeaProjects/progtools/prog-tools/src/assets/icons/icon-192x192.png"
   inkscape:export-xdpi="383.44"
   inkscape:export-ydpi="383.44"
   inkscape:version="1.0.1 (c497b03c, 2020-09-10)">
  <defs
     id="defs312" />
  <g
     inkscape:groupmode="layer"
     id="layer1"
     inkscape:label="background"
     style="display:inline">
    <path
       style="fill:#9fcae2;fill-opacity:1;stroke-width:0.234234"
       id="path1342"
       d="M 46.773956,24.252369 A 22.989223,23.169672 0 0 1 23.801786,47.422035 22.989223,23.169672 0 0 1 0.79553464,24.286742 22.989223,23.169672 0 0 1 23.733574,1.0827543 22.989223,23.169672 0 0 1 46.773855,24.183622 l -22.989122,0.06875 z" />
  </g>
  <g
     class="globe"
     id="g297"
     transform="matrix(0.23423423,0,0,0.23423423,0.00153153,0)">
    <g
       id="g295">
      <g
         id="g257">
        <g
           id="g255">
          <path
             style="fill:#000000"
             d="M 102.618,205.229 C 46.033,205.229 0.002,159.198 0.002,102.613 0.002,46.031 46.033,0 102.618,0 159.2,0 205.227,46.031 205.227,102.613 c 0,56.585 -46.027,102.616 -102.609,102.616 z m 0,-196.611 c -51.829,0 -94.002,42.166 -94.002,93.995 0,51.829 42.17,93.995 94.002,93.995 51.825,0 93.988,-42.162 93.988,-93.995 0,-51.829 -42.162,-93.995 -93.988,-93.995 z"
             id="path253" />
        </g>
      </g>
      <g
         id="g263">
        <g
           id="g261">
          <rect
             x="5.7459998"
             y="98.304001"
             style="fill:#010002"
             width="193.73399"
             height="8.618"
             id="rect259" />
        </g>
      </g>
      <g
         id="g269">
        <g
           id="g267">
          <path
             style="fill:#010002"
             d="m 104.941,62.111 c -48.644,0 -84.94,-10.704 -87.199,-11.388 l 2.494,-8.253 c 0.816,0.247 82.657,24.336 164.38,-0.004 l 2.452,8.26 c -28.663,8.54 -57.047,11.385 -82.127,11.385 z"
             id="path265" />
        </g>
      </g>
      <g
         id="g275">
        <g
           id="g273">
          <path
             style="fill:#010002"
             d="m 20.416,160.572 -2.459,-8.26 c 84.271,-25.081 165.898,-1.027 169.333,0 l -2.494,8.256 c -0.82,-0.25 -82.654,-24.328 -164.38,0.004 z"
             id="path271" />
        </g>
      </g>
      <g
         id="g281">
        <g
           id="g279">
          <path
             style="fill:#010002"
             d="M 69.399,196.168 C 26.933,96.747 63.584,8.604 63.959,7.727 l 7.927,3.378 c -0.365,0.845 -35.534,85.756 5.44,181.677 z"
             id="path277" />
        </g>
      </g>
      <g
         id="g287">
        <g
           id="g285">
          <path
             style="fill:#010002"
             d="m 135.168,196.168 -7.927,-3.382 c 40.971,-95.92 5.801,-180.832 5.436,-181.677 l 7.927,-3.378 c 0.369,0.873 37.023,89.016 -5.436,188.437 z"
             id="path283" />
        </g>
      </g>
      <g
         id="g293">
        <g
           id="g291">
          <rect
             x="98.306"
             y="5.744"
             style="fill:#010002"
             width="8.6140003"
             height="197.302"
             id="rect289" />
        </g>
      </g>
    </g>
  </g>
  <g
     id="g307"
     transform="matrix(0.08901858,0,0,0.08845229,1.5636163,1.2779296)">
    <path
       style="fill:#844b4b"
       d="m 380.8,264.4 v -21.6 l -18.4,-4 c -0.4,-3.6 -1.2,-7.2 -2,-10.8 -10.4,0.8 -20.8,-0.8 -30.4,-4.4 3.6,9.6 6,19.6 6,30.4 0,45.2 -36.8,82 -82,82 -45.2,0 -82,-36.8 -82,-82 0,-45.2 36.8,-82 82,-82 10.8,0 21.2,2 30.4,6 -3.6,-10 -5.2,-20.4 -4.4,-30.4 -4,-0.8 -8,-1.6 -12,-2.4 l -4,-18.4 h -22 l -4,18.4 c -4.4,0.8 -9.2,1.6 -13.2,2.8 l -10.4,-15.6 -20,8.4 3.6,18.8 c -3.6,2 -7.2,4.4 -10.4,7.2 l -13.6,-10.4 -16.8,14 9.2,16.8 c -2.8,3.6 -5.6,7.6 -7.6,11.6 l -16,-4.4 -10,19.2 14.8,12 c -1.2,4.4 -2,8.8 -2.8,13.6 l -16.8,2 -2,21.6 18.4,5.6 c 0.4,4.8 1.6,9.2 2.8,13.6 l -14.8,8.4 6.4,20.8 19.2,-2 c 2.4,4 4.8,8 7.6,11.6 l -10,13.2 14,16.8 16.8,-9.2 c 3.6,2.8 7.6,5.6 11.6,7.6 l -4.4,16 19.2,10 12,-14.8 c 4.4,1.2 8.8,2 13.6,2.8 l 2,16.8 21.6,2 5.6,-18.4 c 4.8,-0.4 9.2,-1.6 13.6,-2.8 l 8.4,14.8 20.8,-6.4 -2,-19.2 c 4.4,-2.4 8.4,-5.2 12.4,-8.4 l 15.6,10.4 15.2,-15.2 -10.4,-16 c 2.8,-3.6 5.2,-7.6 7.6,-11.2 l 18.4,3.6 8.4,-20 L 360,282 c 1.2,-4.4 2,-8.8 2.4,-13.6 z"
       id="path299" />
    <g
       id="g305">
      <path
         style="fill:#324a5e"
         d="m 225.2,360.4 c 1.2,0.4 2,0.4 3.2,0.8 -1.2,17.6 -8.8,34.8 -22,48 -20.4,20.4 -49.6,26.8 -75.2,19.2 l 42,-42 -14.8,-37.2 -37.2,-14.8 -42,42.4 C 71.6,351.2 78,322 98.4,301.6 c 13.6,-13.6 30.4,-20.8 48,-22 0,0.8 0.4,1.6 0.8,2.8 l -14.8,8.4 6.4,20.8 19.2,-2 c 2.4,4 4.8,8 7.6,11.6 l -10,12.8 14,16.8 16.8,-9.2 c 3.6,2.8 7.6,5.6 11.6,7.6 l -4.4,16 19.2,10 z"
         id="path301" />
      <path
         style="fill:#324a5e"
         d="m 409.6,206.4 c -22.8,22.8 -56.4,28 -84.4,16 L 222,325.2 c 0.8,2 1.6,4 2.4,6 -21.6,-8.4 -39.2,-25.6 -47.6,-47.6 2,0.8 4,1.2 6,2.4 L 286,182.8 c -12,-28 -6.8,-61.6 16,-84.4 20.4,-20.4 49.6,-26.8 75.2,-19.2 l -42.4,42 14.8,37.2 37.2,14.8 42,-42 c 7.6,25.6 1.2,54.8 -19.2,75.2 z"
         id="path303" />
    </g>
  </g>
</svg>
